<!DOCTYPE svg PUBLIC "-//W3C//DTD SVG 1.1//EN" "http://www.w3.org/Graphics/SVG/1.1/DTD/svg11.dtd">
<!-- Uploaded to: SVG Repo, www.svgrepo.com, Transformed by: SVG Repo Mixer Tools -->
<svg fill="#ffffff" height="800px" width="800px" version="1.1" id="Layer_1" xmlns="http://www.w3.org/2000/svg" xmlns:xlink="http://www.w3.org/1999/xlink" viewBox="0 0 512 512" xml:space="preserve" stroke="#ffffff">
<g id="SVGRepo_bgCarrier" stroke-width="0"/>
<g id="SVGRepo_tracerCarrier" stroke-linecap="round" stroke-linejoin="round"/>
<g id="SVGRepo_iconCarrier"> <g> <g> <path d="M256.004,0c-10.876,0-19.694,8.818-19.694,19.694v137.858c0,10.876,8.816,19.694,19.694,19.694 c10.876,0,19.694-8.818,19.694-19.694V19.694C275.698,8.818,266.88,0,256.004,0z"/> </g> </g> <g> <g> <path d="M445.806,153.344c-25.441-37.223-60.761-65.947-102.141-83.071c-6.076-2.514-13.027-1.829-18.495,1.825 c-5.467,3.655-8.77,9.797-8.77,16.374v41.319c0,7.309,4.069,14.018,10.536,17.424c50.603,26.654,82.049,78.514,82.049,135.341 c0,84.132-68.522,152.578-152.753,152.578c-84.386,0-153.037-68.446-153.037-152.578c0-55.718,30.488-107.092,79.597-134.074 c6.298-3.46,10.192-10.075,10.192-17.26V89.579c0-6.624-3.31-12.804-8.841-16.447c-5.531-3.643-12.516-4.263-18.6-1.645 C80.912,107.869,26.234,190.718,26.234,282.555C26.234,409.071,129.248,512,255.866,512c126.766,0,229.9-102.929,229.9-229.445 C485.766,236.274,471.949,191.594,445.806,153.344z"/> </g> </g> </g>
</svg>