<!DOCTYPE svg PUBLIC "-//W3C//DTD SVG 1.1//EN" "http://www.w3.org/Graphics/SVG/1.1/DTD/svg11.dtd">
<!-- Uploaded to: SVG Repo, www.svgrepo.com, Transformed by: SVG Repo Mixer Tools -->
<svg height="800px" width="800px" version="1.1" id="Capa_1" xmlns="http://www.w3.org/2000/svg" xmlns:xlink="http://www.w3.org/1999/xlink" viewBox="0 0 14.543 14.543" xml:space="preserve" fill="#000000" stroke="#000000">
<g id="SVGRepo_bgCarrier" stroke-width="0"/>
<g id="SVGRepo_tracerCarrier" stroke-linecap="round" stroke-linejoin="round"/>
<g id="SVGRepo_iconCarrier"> <g> <path style="fill:#2e3440;" d="M12.798,3.408H1.745C0.783,3.408,0,4.191,0,5.153v4.238c0,0.962,0.783,1.745,1.745,1.745h11.053 c0.962,0,1.745-0.783,1.745-1.745V5.153C14.543,4.19,13.76,3.408,12.798,3.408z M13.545,9.391c0,0.412-0.335,0.747-0.747,0.747 H7.202C7.657,9.867,7.963,9.37,7.963,8.802V5.741c0-0.569-0.306-1.065-0.761-1.336h5.596c0.412,0,0.747,0.335,0.747,0.748V9.391z"/> </g> </g>
</svg>