<?xml version="1.0" encoding="iso-8859-1"?>
<!-- Uploaded to: SVG Repo, www.svgrepo.com, Generator: SVG Repo Mixer Tools -->
<svg height="800px" width="800px" version="1.1" id="Layer_1" xmlns="http://www.w3.org/2000/svg" xmlns:xlink="http://www.w3.org/1999/xlink" 
	 viewBox="0 0 297 297" xml:space="preserve">
<g>
	<g id="XMLID_20_">
		<g>
			<path style="fill:#7F8C8D;" d="M163.64,84.83v127.34c0,8.35-6.79,15.14-15.14,15.14c-8.34,0-15.13-6.79-15.13-15.14V84.83
				c0-8.35,6.79-15.14,15.13-15.14C156.85,69.69,163.64,76.48,163.64,84.83z"/>
			<path style="fill:#D35400;" d="M148.5,20.88c70.37,0,127.63,57.25,127.63,127.62S218.87,276.12,148.5,276.12
				S20.88,218.87,20.88,148.5S78.13,20.88,148.5,20.88z M184.52,212.17V84.83c0-19.86-16.16-36.02-36.02-36.02
				c-19.85,0-36.01,16.16-36.01,36.02v127.34c0,19.86,16.16,36.02,36.01,36.02C168.36,248.19,184.52,232.03,184.52,212.17z"/>
			<path d="M148.5,0C230.39,0,297,66.62,297,148.5S230.39,297,148.5,297C66.62,297,0,230.38,0,148.5S66.62,0,148.5,0z M276.13,148.5
				c0-70.37-57.26-127.62-127.63-127.62S20.88,78.13,20.88,148.5S78.13,276.12,148.5,276.12S276.13,218.87,276.13,148.5z"/>
			<path d="M184.52,84.83v127.34c0,19.86-16.16,36.02-36.02,36.02c-19.85,0-36.01-16.16-36.01-36.02V84.83
				c0-19.86,16.16-36.02,36.01-36.02C168.36,48.81,184.52,64.97,184.52,84.83z M163.64,212.17V84.83c0-8.35-6.79-15.14-15.14-15.14
				c-8.34,0-15.13,6.79-15.13,15.14v127.34c0,8.35,6.79,15.14,15.13,15.14C156.85,227.31,163.64,220.52,163.64,212.17z"/>
		</g>
	</g>
</g>
</svg>